
    <svg
        width="1200"
        height="420"
        viewBox="0 0 1200 420"
        fill="none"
        xmlns="http://www.w3.org/2000/svg">
            <rect xmlns="http://www.w3.org/2000/svg" data-testid="card_bg" id="cardBg"
            x="0" y="0" rx="0" height="100%" stroke="#E4E2E2" fill-opacity="1"
            width="100%" fill="#1a1b27" stroke-opacity="1" style="stroke:#0000; stroke-width:1;"/>

            <style>
                body {
                    font: 600 18px 'Segoe UI', Ubuntu, Sans-Serif;
                }
                .header {
                    font: 600 20px 'Segoe UI', Ubuntu, Sans-Serif;
                    text-align: center;
                    color: #70a5fd;
                    margin-top: 20px;
                }
                svg {
                    font: 600 18px 'Segoe UI', Ubuntu, Sans-Serif;
                    user-select: none;
                }
                
    .ct-label {
      fill: #70a5fd;
      color: #70a5fd;
      font-size: .75rem;
      line-height: 1;
    }

    .ct-grid-background,
    .ct-line {
      fill: none;
    }

    .ct-chart-bar .ct-label,
    .ct-chart-line .ct-label {
      display: block;
      display: -webkit-box;
      display: -moz-box;
      display: -ms-flexbox;
      display: -webkit-flex;
      display: flex;
    }

    .ct-label.ct-horizontal.ct-start {
      -webkit-box-align: flex-end;
      -webkit-align-items: flex-end;
      -ms-flex-align: flex-end;
      align-items: flex-end;
      -webkit-box-pack: flex-start;
      -webkit-justify-content: flex-start;
      -ms-flex-pack: flex-start;
      justify-content: flex-start;
      text-align: left;
      text-anchor: start;
    }

    .ct-label.ct-horizontal.ct-end {
      -webkit-box-align: flex-start;
      -webkit-align-items: flex-start;
      -ms-flex-align: flex-start;
      align-items: flex-start;
      -webkit-box-pack: flex-start;
      -webkit-justify-content: flex-start;
      -ms-flex-pack: flex-start;
      justify-content: flex-start;
      text-align: left;
      text-anchor: start;
    }

    .ct-label.ct-vertical.ct-start {
      -webkit-box-align: flex-end;
      -webkit-align-items: flex-end;
      -ms-flex-align: flex-end;
      align-items: flex-end;
      -webkit-box-pack: flex-end;
      -webkit-justify-content: flex-end;
      -ms-flex-pack: flex-end;
      justify-content: flex-end;
      text-align: right;
      text-anchor: end;
    }

    .ct-label.ct-vertical.ct-end {
      -webkit-box-align: flex-end;
      -webkit-align-items: flex-end;
      -ms-flex-align: flex-end;
      align-items: flex-end;
      -webkit-box-pack: flex-start;
      -webkit-justify-content: flex-start;
      -ms-flex-pack: flex-start;
      justify-content: flex-start;
      text-align: left;
      text-anchor: start;
    }

    .ct-grid {
      stroke: #70a5fd;
      stroke-width: 1px;
      stroke-opacity: 0.3;
      stroke-dasharray: 2px;
    }

    .ct-point {
      stroke-width: 10px;
      stroke-linecap: round;
      stroke: #a9b1d6;
      animation: blink 1s ease-in-out forwards;
    }

    .ct-line {
      stroke-width: 4px;
      stroke-dasharray: 5000;
      stroke-dashoffset: 5000;
      stroke: #70a5fd;
      animation: dash 5s ease-in-out forwards;
    }

    .ct-area {
      stroke: none;
      fill-opacity: 0.1;
    }

    .ct-series-a .ct-area,
    .ct-series-a .ct-slice-pie {
      fill: #70a5fd;
    }

    .ct-label .ct-horizontal {
      transform: rotate(-90deg)
    }
    
                
        @keyframes blink {
            from {
                opacity: 0;
                transform:translateX(-20px); 
            }
            to {
                opacity:1;
                transform: translateX(0);
            }
        }
    
                
        @keyframes dash {
            to {
                stroke-dashoffset: 0;
            }
        }
    
    
            </style>

            <foreignObject x="0" y="0" width="1200" height="50">
                <h1 xmlns="http://www.w3.org/1999/xhtml" class="header">
                    Đoàn Minh Trí (MinhTriTM)'s Contribution Graph
                </h1>
            </foreignObject>
            <svg xmlns:ct="http://gionkunz.github.com/chartist-js/ct" width="1200" height="420" class="ct-chart-line"><g class="ct-grids"><line x1="90" x2="90" y1="80" y2="350" class="ct-grid ct-horizontal"></line><line x1="125.33333333333334" x2="125.33333333333334" y1="80" y2="350" class="ct-grid ct-horizontal"></line><line x1="160.66666666666669" x2="160.66666666666669" y1="80" y2="350" class="ct-grid ct-horizontal"></line><line x1="196" x2="196" y1="80" y2="350" class="ct-grid ct-horizontal"></line><line x1="231.33333333333334" x2="231.33333333333334" y1="80" y2="350" class="ct-grid ct-horizontal"></line><line x1="266.6666666666667" x2="266.6666666666667" y1="80" y2="350" class="ct-grid ct-horizontal"></line><line x1="302" x2="302" y1="80" y2="350" class="ct-grid ct-horizontal"></line><line x1="337.33333333333337" x2="337.33333333333337" y1="80" y2="350" class="ct-grid ct-horizontal"></line><line x1="372.6666666666667" x2="372.6666666666667" y1="80" y2="350" class="ct-grid ct-horizontal"></line><line x1="408" x2="408" y1="80" y2="350" class="ct-grid ct-horizontal"></line><line x1="443.33333333333337" x2="443.33333333333337" y1="80" y2="350" class="ct-grid ct-horizontal"></line><line x1="478.6666666666667" x2="478.6666666666667" y1="80" y2="350" class="ct-grid ct-horizontal"></line><line x1="514" x2="514" y1="80" y2="350" class="ct-grid ct-horizontal"></line><line x1="549.3333333333334" x2="549.3333333333334" y1="80" y2="350" class="ct-grid ct-horizontal"></line><line x1="584.6666666666667" x2="584.6666666666667" y1="80" y2="350" class="ct-grid ct-horizontal"></line><line x1="620" x2="620" y1="80" y2="350" class="ct-grid ct-horizontal"></line><line x1="655.3333333333334" x2="655.3333333333334" y1="80" y2="350" class="ct-grid ct-horizontal"></line><line x1="690.6666666666667" x2="690.6666666666667" y1="80" y2="350" class="ct-grid ct-horizontal"></line><line x1="726" x2="726" y1="80" y2="350" class="ct-grid ct-horizontal"></line><line x1="761.3333333333334" x2="761.3333333333334" y1="80" y2="350" class="ct-grid ct-horizontal"></line><line x1="796.6666666666667" x2="796.6666666666667" y1="80" y2="350" class="ct-grid ct-horizontal"></line><line x1="832" x2="832" y1="80" y2="350" class="ct-grid ct-horizontal"></line><line x1="867.3333333333334" x2="867.3333333333334" y1="80" y2="350" class="ct-grid ct-horizontal"></line><line x1="902.6666666666667" x2="902.6666666666667" y1="80" y2="350" class="ct-grid ct-horizontal"></line><line x1="938" x2="938" y1="80" y2="350" class="ct-grid ct-horizontal"></line><line x1="973.3333333333334" x2="973.3333333333334" y1="80" y2="350" class="ct-grid ct-horizontal"></line><line x1="1008.6666666666667" x2="1008.6666666666667" y1="80" y2="350" class="ct-grid ct-horizontal"></line><line x1="1044" x2="1044" y1="80" y2="350" class="ct-grid ct-horizontal"></line><line x1="1079.3333333333335" x2="1079.3333333333335" y1="80" y2="350" class="ct-grid ct-horizontal"></line><line x1="1114.6666666666667" x2="1114.6666666666667" y1="80" y2="350" class="ct-grid ct-horizontal"></line><line x1="1150" x2="1150" y1="80" y2="350" class="ct-grid ct-horizontal"></line><line y1="350" y2="350" x1="90" x2="1150" class="ct-grid ct-vertical"></line><line y1="327.5" y2="327.5" x1="90" x2="1150" class="ct-grid ct-vertical"></line><line y1="305" y2="305" x1="90" x2="1150" class="ct-grid ct-vertical"></line><line y1="282.5" y2="282.5" x1="90" x2="1150" class="ct-grid ct-vertical"></line><line y1="260" y2="260" x1="90" x2="1150" class="ct-grid ct-vertical"></line><line y1="237.5" y2="237.5" x1="90" x2="1150" class="ct-grid ct-vertical"></line><line y1="215" y2="215" x1="90" x2="1150" class="ct-grid ct-vertical"></line><line y1="192.5" y2="192.5" x1="90" x2="1150" class="ct-grid ct-vertical"></line><line y1="170" y2="170" x1="90" x2="1150" class="ct-grid ct-vertical"></line><line y1="147.5" y2="147.5" x1="90" x2="1150" class="ct-grid ct-vertical"></line><line y1="125" y2="125" x1="90" x2="1150" class="ct-grid ct-vertical"></line><line y1="102.5" y2="102.5" x1="90" x2="1150" class="ct-grid ct-vertical"></line><line y1="80" y2="80" x1="90" x2="1150" class="ct-grid ct-vertical"></line></g><g><g class="ct-series ct-series-a"><path d="M90,350L90,333.71C101.778,329.9,113.556,322.28,125.333,322.28C137.111,322.28,148.889,326.78,160.667,326.78C172.444,326.78,184.222,319.76,196,319.76C207.778,319.76,219.556,333.864,231.333,338.21C243.111,342.556,254.889,348.29,266.667,348.29C278.444,348.29,290.222,338.848,302,332C313.778,325.152,325.556,304.19,337.333,304.19C349.111,304.19,360.889,320.57,372.667,320.57C384.444,320.57,396.222,304.759,408,292.22C419.778,279.681,431.556,236.33,443.333,236.33C455.111,236.33,466.889,271.655,478.667,287.09C490.444,302.525,502.222,329.66,514,329.66C525.778,329.66,537.556,314.906,549.333,303.74C561.111,292.574,572.889,256.4,584.667,256.4C596.444,256.4,608.222,277.73,620,277.73C631.778,277.73,643.556,264.415,655.333,255.86C667.111,247.305,678.889,241.464,690.667,224.81C702.444,208.156,714.222,97.01,726,97.01C737.778,97.01,749.556,226.918,761.333,242.18C773.111,257.442,784.889,258.184,796.667,269.36C808.444,280.536,820.222,313.1,832,313.1C843.778,313.1,855.556,305.63,867.333,305.63C879.111,305.63,890.889,308.137,902.667,311.12C914.444,314.103,926.222,335.33,938,335.33C949.778,335.33,961.556,311.242,973.333,292.49C985.111,273.738,996.889,210.59,1008.667,210.59C1020.444,210.59,1032.222,217.926,1044,226.52C1055.778,235.114,1067.556,275.633,1079.333,294.11C1091.111,312.587,1102.889,339.713,1114.667,341.09C1126.444,342.467,1138.222,342.53,1150,343.25L1150,350Z" class="ct-area"></path><path d="M90,333.71C101.778,329.9,113.556,322.28,125.333,322.28C137.111,322.28,148.889,326.78,160.667,326.78C172.444,326.78,184.222,319.76,196,319.76C207.778,319.76,219.556,333.864,231.333,338.21C243.111,342.556,254.889,348.29,266.667,348.29C278.444,348.29,290.222,338.848,302,332C313.778,325.152,325.556,304.19,337.333,304.19C349.111,304.19,360.889,320.57,372.667,320.57C384.444,320.57,396.222,304.759,408,292.22C419.778,279.681,431.556,236.33,443.333,236.33C455.111,236.33,466.889,271.655,478.667,287.09C490.444,302.525,502.222,329.66,514,329.66C525.778,329.66,537.556,314.906,549.333,303.74C561.111,292.574,572.889,256.4,584.667,256.4C596.444,256.4,608.222,277.73,620,277.73C631.778,277.73,643.556,264.415,655.333,255.86C667.111,247.305,678.889,241.464,690.667,224.81C702.444,208.156,714.222,97.01,726,97.01C737.778,97.01,749.556,226.918,761.333,242.18C773.111,257.442,784.889,258.184,796.667,269.36C808.444,280.536,820.222,313.1,832,313.1C843.778,313.1,855.556,305.63,867.333,305.63C879.111,305.63,890.889,308.137,902.667,311.12C914.444,314.103,926.222,335.33,938,335.33C949.778,335.33,961.556,311.242,973.333,292.49C985.111,273.738,996.889,210.59,1008.667,210.59C1020.444,210.59,1032.222,217.926,1044,226.52C1055.778,235.114,1067.556,275.633,1079.333,294.11C1091.111,312.587,1102.889,339.713,1114.667,341.09C1126.444,342.467,1138.222,342.53,1150,343.25" class="ct-line"></path><line x1="90" y1="333.71" x2="90.01" y2="333.71" class="ct-point" ct:value="181"></line><line x1="125.33333333333334" y1="322.28" x2="125.34333333333335" y2="322.28" class="ct-point" ct:value="308"></line><line x1="160.66666666666669" y1="326.78" x2="160.67666666666668" y2="326.78" class="ct-point" ct:value="258"></line><line x1="196" y1="319.76" x2="196.01" y2="319.76" class="ct-point" ct:value="336"></line><line x1="231.33333333333334" y1="338.21" x2="231.34333333333333" y2="338.21" class="ct-point" ct:value="131"></line><line x1="266.6666666666667" y1="348.29" x2="266.6766666666667" y2="348.29" class="ct-point" ct:value="19"></line><line x1="302" y1="332" x2="302.01" y2="332" class="ct-point" ct:value="200"></line><line x1="337.33333333333337" y1="304.19" x2="337.34333333333336" y2="304.19" class="ct-point" ct:value="509"></line><line x1="372.6666666666667" y1="320.57" x2="372.6766666666667" y2="320.57" class="ct-point" ct:value="327"></line><line x1="408" y1="292.22" x2="408.01" y2="292.22" class="ct-point" ct:value="642"></line><line x1="443.33333333333337" y1="236.32999999999998" x2="443.34333333333336" y2="236.32999999999998" class="ct-point" ct:value="1263"></line><line x1="478.6666666666667" y1="287.09000000000003" x2="478.6766666666667" y2="287.09000000000003" class="ct-point" ct:value="699"></line><line x1="514" y1="329.66" x2="514.01" y2="329.66" class="ct-point" ct:value="226"></line><line x1="549.3333333333334" y1="303.74" x2="549.3433333333334" y2="303.74" class="ct-point" ct:value="514"></line><line x1="584.6666666666667" y1="256.4" x2="584.6766666666667" y2="256.4" class="ct-point" ct:value="1040"></line><line x1="620" y1="277.73" x2="620.01" y2="277.73" class="ct-point" ct:value="803"></line><line x1="655.3333333333334" y1="255.86" x2="655.3433333333334" y2="255.86" class="ct-point" ct:value="1046"></line><line x1="690.6666666666667" y1="224.81" x2="690.6766666666667" y2="224.81" class="ct-point" ct:value="1391"></line><line x1="726" y1="97.00999999999999" x2="726.01" y2="97.00999999999999" class="ct-point" ct:value="2811"></line><line x1="761.3333333333334" y1="242.18" x2="761.3433333333334" y2="242.18" class="ct-point" ct:value="1198"></line><line x1="796.6666666666667" y1="269.36" x2="796.6766666666667" y2="269.36" class="ct-point" ct:value="896"></line><line x1="832" y1="313.1" x2="832.01" y2="313.1" class="ct-point" ct:value="410"></line><line x1="867.3333333333334" y1="305.63" x2="867.3433333333334" y2="305.63" class="ct-point" ct:value="493"></line><line x1="902.6666666666667" y1="311.12" x2="902.6766666666667" y2="311.12" class="ct-point" ct:value="432"></line><line x1="938" y1="335.33" x2="938.01" y2="335.33" class="ct-point" ct:value="163"></line><line x1="973.3333333333334" y1="292.49" x2="973.3433333333334" y2="292.49" class="ct-point" ct:value="639"></line><line x1="1008.6666666666667" y1="210.59" x2="1008.6766666666667" y2="210.59" class="ct-point" ct:value="1549"></line><line x1="1044" y1="226.51999999999998" x2="1044.01" y2="226.51999999999998" class="ct-point" ct:value="1372"></line><line x1="1079.3333333333335" y1="294.11" x2="1079.3433333333335" y2="294.11" class="ct-point" ct:value="621"></line><line x1="1114.6666666666667" y1="341.09" x2="1114.6766666666667" y2="341.09" class="ct-point" ct:value="99"></line><line x1="1150" y1="343.25" x2="1150.01" y2="343.25" class="ct-point" ct:value="75"></line></g></g><g class="ct-labels"><text x="85.5" y="370" width="35.333333333333336" height="40" class="ct-label ct-horizontal ct-end">19</text><text x="120.83333333333334" y="370" width="35.333333333333336" height="40" class="ct-label ct-horizontal ct-end">20</text><text x="156.16666666666669" y="370" width="35.33333333333333" height="40" class="ct-label ct-horizontal ct-end">21</text><text x="191.5" y="370" width="35.33333333333334" height="40" class="ct-label ct-horizontal ct-end">22</text><text x="226.83333333333334" y="370" width="35.33333333333334" height="40" class="ct-label ct-horizontal ct-end">23</text><text x="262.1666666666667" y="370" width="35.333333333333314" height="40" class="ct-label ct-horizontal ct-end">24</text><text x="297.5" y="370" width="35.33333333333334" height="40" class="ct-label ct-horizontal ct-end">25</text><text x="332.83333333333337" y="370" width="35.33333333333334" height="40" class="ct-label ct-horizontal ct-end">26</text><text x="368.1666666666667" y="370" width="35.333333333333314" height="40" class="ct-label ct-horizontal ct-end">27</text><text x="403.5" y="370" width="35.33333333333337" height="40" class="ct-label ct-horizontal ct-end">28</text><text x="438.83333333333337" y="370" width="35.333333333333314" height="40" class="ct-label ct-horizontal ct-end">29</text><text x="474.1666666666667" y="370" width="35.333333333333314" height="40" class="ct-label ct-horizontal ct-end">30</text><text x="509.5" y="370" width="35.33333333333337" height="40" class="ct-label ct-horizontal ct-end">31</text><text x="544.8333333333334" y="370" width="35.333333333333314" height="40" class="ct-label ct-horizontal ct-end">1</text><text x="580.1666666666667" y="370" width="35.333333333333314" height="40" class="ct-label ct-horizontal ct-end">2</text><text x="615.5" y="370" width="35.33333333333337" height="40" class="ct-label ct-horizontal ct-end">3</text><text x="650.8333333333334" y="370" width="35.33333333333337" height="40" class="ct-label ct-horizontal ct-end">4</text><text x="686.1666666666667" y="370" width="35.33333333333326" height="40" class="ct-label ct-horizontal ct-end">5</text><text x="721.5" y="370" width="35.33333333333337" height="40" class="ct-label ct-horizontal ct-end">6</text><text x="756.8333333333334" y="370" width="35.33333333333337" height="40" class="ct-label ct-horizontal ct-end">7</text><text x="792.1666666666667" y="370" width="35.33333333333326" height="40" class="ct-label ct-horizontal ct-end">8</text><text x="827.5" y="370" width="35.33333333333337" height="40" class="ct-label ct-horizontal ct-end">9</text><text x="862.8333333333334" y="370" width="35.33333333333337" height="40" class="ct-label ct-horizontal ct-end">10</text><text x="898.1666666666667" y="370" width="35.33333333333326" height="40" class="ct-label ct-horizontal ct-end">11</text><text x="933.5" y="370" width="35.33333333333337" height="40" class="ct-label ct-horizontal ct-end">12</text><text x="968.8333333333334" y="370" width="35.33333333333337" height="40" class="ct-label ct-horizontal ct-end">13</text><text x="1004.1666666666667" y="370" width="35.33333333333337" height="40" class="ct-label ct-horizontal ct-end">14</text><text x="1039.5" y="370" width="35.33333333333326" height="40" class="ct-label ct-horizontal ct-end">15</text><text x="1074.8333333333335" y="370" width="35.33333333333337" height="40" class="ct-label ct-horizontal ct-end">16</text><text x="1110.1666666666667" y="370" width="35.33333333333326" height="40" class="ct-label ct-horizontal ct-end">17</text><text x="1145.5" y="370" width="30" height="40" class="ct-label ct-horizontal ct-end">18</text><text y="354.5" x="80" height="22.5" width="60" class="ct-label ct-vertical ct-start">0</text><text y="332" x="80" height="22.5" width="60" class="ct-label ct-vertical ct-start">250</text><text y="309.5" x="80" height="22.5" width="60" class="ct-label ct-vertical ct-start">500</text><text y="287" x="80" height="22.5" width="60" class="ct-label ct-vertical ct-start">750</text><text y="264.5" x="80" height="22.5" width="60" class="ct-label ct-vertical ct-start">1000</text><text y="242" x="80" height="22.5" width="60" class="ct-label ct-vertical ct-start">1250</text><text y="219.5" x="80" height="22.5" width="60" class="ct-label ct-vertical ct-start">1500</text><text y="197" x="80" height="22.5" width="60" class="ct-label ct-vertical ct-start">1750</text><text y="174.5" x="80" height="22.5" width="60" class="ct-label ct-vertical ct-start">2000</text><text y="152" x="80" height="22.5" width="60" class="ct-label ct-vertical ct-start">2250</text><text y="129.5" x="80" height="22.5" width="60" class="ct-label ct-vertical ct-start">2500</text><text y="107" x="80" height="22.5" width="60" class="ct-label ct-vertical ct-start">2750</text><text y="84.5" x="80" height="30" width="60" class="ct-label ct-vertical ct-start">3000</text></g><text class="ct-axis-title ct-label" x="620" y="400" dominant-baseline="text-after-edge" text-anchor="middle">Days</text><text class="ct-axis-title ct-label" x="20" y="215" transform="rotate(-90, 20, 215)" dominant-baseline="hanging" text-anchor="middle">Contributions</text></svg>
    </svg>
